<?xml version="1.0" encoding="UTF-8" standalone="no" ?>
<!DOCTYPE svg PUBLIC "-//W3C//DTD SVG 1.1//EN" "http://www.w3.org/Graphics/SVG/1.1/DTD/svg11.dtd">
<svg xmlns="http://www.w3.org/2000/svg" xmlns:xlink="http://www.w3.org/1999/xlink" version="1.1" width="1280" height="1024" viewBox="0 0 1280 1024" xml:space="preserve">
<desc>Created with Fabric.js 5.3.0</desc>
<defs>
</defs>
<g transform="matrix(1 0 0 1 640 512)" id="background-logo"  >
<rect style="stroke: none; stroke-width: 0; stroke-dasharray: none; stroke-linecap: butt; stroke-dashoffset: 0; stroke-linejoin: miter; stroke-miterlimit: 4; fill: rgb(255,255,255); fill-opacity: 0; fill-rule: nonzero; opacity: 1;"  paint-order="stroke"  x="-640" y="-512" rx="0" ry="0" width="1280" height="1024" />
</g>
<g transform="matrix(2.946561940953897 0 0 2.946561940953897 632.3191533261412 277.3625284379474)" id="logo-logo"  >
<g style=""  paint-order="stroke"   >
		<g transform="matrix(0.5627294789946276 0 0 0.5627294789946276 -10.188763379692034 -2.4463460679704383)"  >
<linearGradient id="SVGID_539445" gradientUnits="userSpaceOnUse" gradientTransform="matrix(1 0 0 1 125.99999957569324 269.89003159633614)"  x1="0" y1="0" x2="0" y2="294">
<stop offset="0%" style="stop-color:rgb(48,35,174);stop-opacity: 1"/>
<stop offset="100%" style="stop-color:rgb(200,109,215);stop-opacity: 1"/>
</linearGradient>
<path style="stroke: none; stroke-width: 1; stroke-dasharray: none; stroke-linecap: butt; stroke-dashoffset: 0; stroke-linejoin: miter; stroke-miterlimit: 4; fill: url(#SVGID_539445); fill-rule: nonzero; opacity: 1;"  paint-order="stroke"  transform=" translate(-279.365393371526, -416.8486780466103)" d="M 214.7348633 379.7124023 C 213.9604492 380.4868164 213.1938477 381.1948242 212.4350586 381.840332 L 234.668457 396.4155273 C 239.04003899999998 399.2827148 239.89208979999998 404.9770507 237.40625 409.574707 L 211.9506836 456.6459961 C 209.46386719999998 461.2436524 203.1630859 462.2485352 198.79248049999998 459.3833008 L 130.44335939999996 414.5756836 C 126.07177739999996 411.71044919999997 124.48046879999997 405.53076169999997 127.70556639999997 401.4174805 L 160.71972659999997 359.300293 C 163.94531249999997 355.1870117 169.50683599999996 353.6977539 173.87841799999998 356.56396490000003 L 193.5908203 369.48681650000003 C 194.3041992 367.97607430000005 195.2163086 366.42236340000005 196.3486328 364.8481446 C 230.184082 317.8012696 278.2392578 319.43798830000003 318.67578119999996 334.8579102 L 321.3378906 335.8706055 C 321.7216797 336.00927740000003 322.1015625 336.1616211 322.477539 336.3247071 C 349.6005859 346.2719727 394.133789 345.3110352 410.57421869999996 317.3237305 C 422.73242179999994 296.6274414 439.35156249999994 306.8745117 429.98339839999994 328.9750977 C 411.4394530999999 372.7231446 361.5009764999999 385.4516602 318.62304679999994 373.4975586 C 306.37792959999996 383.8081055 296.4204100999999 397.4116211 293.4438475999999 411.35107419999997 C 292.28710929999994 416.76806639999995 292.37939449999993 422.4887695 293.8022459999999 423.65966799999995 C 294.9653318999999 424.61669929999994 329.83300769999994 409.81884769999994 339.3437498999999 406.76806639999995 C 368.0341795999999 397.56396479999995 390.2851561999999 406.88623049999995 400.77832019999994 424.74853519999994 C 417.2812498999999 452.84716799999995 401.81445299999996 490.86572269999994 373.69824209999996 505.17626959999996 C 352.21484369999996 516.1108399 340.95703119999996 494.854004 359.32324209999996 482.010254 C 371.76757799999996 473.307129 377.51269519999994 439.84912119999996 361.5166015 439.5014649 C 339.8984374 439.0297852 289.1259765 481.0493165 263.7158202 444.5639649 C 247.1406249 420.7661133 259.5385741 385.0786133 278.8828124 361.6635743 C 279.2211913 361.253418 279.5649413 360.8432618 279.91162099999997 360.4350587 C 259.125 355.2563477 237.90625 356.5415039 214.7348633 379.7124023 L 214.7348633 379.7124023 z M 320.9521484 461.5083008 C 322.5488281 467.1694336 323.3164062 472.87060549999995 323.3232422 478.54150389999995 C 323.3837891 521.7915039 280.99169919999997 549.5366210999999 244.84765629999998 562.090332 C 222.1552735 569.9731445 213.9042969 548.762207 235.38330079999997 538.0102539 C 255.03564459999998 528.1733398 284.08300779999996 505.86181639999995 286.45556639999995 481.45556639999995 C 286.9550781 476.31494139999995 286.17578119999996 471.29052729999995 284.0341796999999 466.63134759999997 C 294.1713866999999 468.35205069999995 305.25781249999994 466.5659179 316.4130859999999 463.03076169999997 C 317.9365234 462.5483398 319.4482422 462.0385742 320.9521484 461.5083008 L 320.9521484 461.5083008 z M 355.2109375 272.2895508 C 368.5205078 278.9438477 372.7851563 297.39013669999997 364.7373047 313.48876959999996 C 356.6884766 329.588379 339.3740234 337.24560549999995 326.0644531 330.59228519999994 C 312.75488279999996 323.9389648999999 308.48925779999996 305.4926757999999 316.5380859 289.39306639999995 C 324.58691400000004 273.293457 341.9013672 265.6362305 355.2109375 272.2895508 L 355.2109375 272.2895508 z" stroke-linecap="round" />
</g>
		<g transform="matrix(0.5627294789946276 0 0 0.5627294789946276 18.392505693655437 19.55075742427826)"  >
<path style="stroke: none; stroke-width: 1; stroke-dasharray: none; stroke-linecap: butt; stroke-dashoffset: 0; stroke-linejoin: miter; stroke-miterlimit: 4; fill: rgb(151,197,255); fill-rule: evenodd; opacity: 1;"  paint-order="stroke"  transform=" translate(-330.15581779430687, -455.9386925444267)" d="M 311.7832031 353.2368164 C 302.6201172 367.425293 270.5097656 375.980957 243.9409179 373.5766602 C 239.9257812 377.2006836 235.911621 380.8247071 231.8964843 384.4487305 C 236.2011718 387.8696289 240.5043945 391.2915039 244.8085937 394.71240240000003 C 290.1787109 391.54443360000005 309.2441406 371.6831055 317.83984369999996 356.45361330000003 C 318.05273429999994 356.46923830000003 318.26855459999996 356.47802740000003 318.4853515 356.47802740000003 C 323.20800779999996 356.47802740000003 327.0371093 352.64990240000003 327.0371093 347.92724610000005 C 327.0371093 343.20361330000003 323.2080077 339.37548830000003 318.4853515 339.37548830000003 C 313.76269529999996 339.37548830000003 309.9345702 343.20361330000003 309.9345702 347.92724610000005 C 309.9345703 349.9331055 310.6259766 351.777832 311.7832031 353.2368164 L 311.7832031 353.2368164 z M 445.9746094 432.3969727 C 455.8642578 456.8022461 409.5527344 498.6000977 342.5361328 525.7573242999999 C 275.5195312 552.9145508999999 213.1743164 555.1459961999999 203.284668 530.7407227 C 200.6962891 524.3520508 201.95898440000002 516.7709961 206.43603520000002 508.5717774 C 193.597168 524.0981446 188.32763680000002 538.9389649 193.11083990000003 550.7407227 C 205.14306650000003 580.4331055 276.2543946 579.6411133 351.94238290000004 548.9702149 C 427.631836 518.2993165 479.2343751 469.3647461 467.20117200000004 439.6713868 C 462.41894540000004 427.869629 448.3046876 420.8833009 428.28027360000004 418.675293 C 437.2021484 421.4448242 443.3857422 426.0083008 445.9746094 432.3969727 L 445.9746094 432.3969727 z" stroke-linecap="round" />
</g>
</g>
</g>
<g transform="matrix(1.9211538461538462 0 0 1.9211538461538462 639.8204101308728 636.918954369645)" id="text-logo"  >
<g style=""  paint-order="stroke"   >
		<g transform="matrix(1 0 0 1 0 0)" id="text-logo-path-0"  >
<linearGradient id="SVGID_539446" gradientUnits="userSpaceOnUse" gradientTransform="matrix(1 0 0 1 5.280000000000001 -84.48)"  x1="-5.160001831054643" y1="-21.016800000000046" x2="-5.160001831054643" y2="114.98319999999995">
<stop offset="0%" style="stop-color:rgb(113,23,234);stop-opacity: 1"/>
<stop offset="100%" style="stop-color:rgb(234,96,96);stop-opacity: 1"/>
</linearGradient>
<filter id="SVGID_539440" y="-31.20382244174661%" height="162.40764488349322%" x="-20%" width="140%" >
	<feGaussianBlur in="SourceAlpha" stdDeviation="0"></feGaussianBlur>
	<feOffset dx="0" dy="9.612879655018592" result="oBlur" ></feOffset>
	<feFlood flood-color="rgb(204,213,227)" flood-opacity="1"/>
	<feComposite in2="oBlur" operator="in" />
	<feMerge>
		<feMergeNode></feMergeNode>
		<feMergeNode in="SourceGraphic"></feMergeNode>
	</feMerge>
</filter>
<path style="stroke: rgb(28,68,116); stroke-width: 2; stroke-dasharray: none; stroke-linecap: butt; stroke-dashoffset: 0; stroke-linejoin: miter; stroke-miterlimit: 4; fill: url(#SVGID_539446); fill-rule: nonzero; opacity: 1;filter: url(#SVGID_539440);"  paint-order="stroke"  transform=" translate(-188.10000000000002, 41.580000000000005)" d="M 7.08 -14.16 C 14.76 -4.68 25.32 0.48 36.84 0.48 C 54.24 0.48 68.16 -10.08 68.16 -25.32 C 68.16 -42 54.72 -46.2 39.12 -49.56 C 28.32 -52.2 24.12 -53.4 24.12 -59.28 C 24.12 -65.04 26.88 -67.68 36.36 -67.68 C 42.48 -67.68 46.2 -66 49.08 -63 C 50.64 -61.44 52.68 -60.48 55.08 -60.48 C 59.64 -60.48 63.36 -64.2 63.36 -68.88 C 63.36 -71.16 62.4 -73.32 60.84 -74.88 C 55.2 -80.28 47.28 -84.48 36.36 -84.48 C 18.96 -84.48 7.32 -73.44 7.32 -59.28 C 7.32 -42.48 20.28 -36.84 35.28 -33.24 C 47.16 -30.6 51.36 -29.88 51.36 -25.32 C 51.36 -19.08 46.32 -16.32 36.84 -16.32 C 29.88 -16.32 24.6 -18.72 20.28 -24.36 C 18.72 -26.4 16.32 -27.72 13.68 -27.72 C 9 -27.72 5.28 -24 5.28 -19.32 C 5.28 -17.4 6 -15.6 7.08 -14.16 Z M 120 -7.08 L 120 -22.8 L 157.32 -22.8 L 157.32 -7.08 C 157.32 -2.4 161.04 1.32 165.72 1.32 C 170.4 1.32 174.12 -2.4 174.12 -7.08 L 174.12 -48.96 C 174.12 -68.64 158.28 -84.48 138.72 -84.48 C 119.04 -84.48 103.2 -68.64 103.2 -48.96 L 103.2 -7.08 C 103.2 -2.4 106.92 1.32 111.6 1.32 C 116.28 1.32 120 -2.4 120 -7.08 Z M 120 -39.6 L 120 -48.96 C 120 -60.48 127.2 -67.68 138.72 -67.68 C 150.12 -67.68 157.32 -60.48 157.32 -48.96 L 157.32 -39.6 Z M 225.96 -7.08 L 225.96 -22.8 L 263.28 -22.8 L 263.28 -7.08 C 263.28 -2.4 267 1.32 271.68 1.32 C 276.36 1.32 280.08 -2.4 280.08 -7.08 L 280.08 -48.96 C 280.08 -68.64 264.24 -84.48 244.68 -84.48 C 225 -84.48 209.16 -68.64 209.16 -48.96 L 209.16 -7.08 C 209.16 -2.4 212.88 1.32 217.56 1.32 C 222.24 1.32 225.96 -2.4 225.96 -7.08 Z M 225.96 -39.6 L 225.96 -48.96 C 225.96 -60.48 233.16 -67.68 244.68 -67.68 C 256.08 -67.68 263.28 -60.48 263.28 -48.96 L 263.28 -39.6 Z M 348.48 -7.56 L 348.48 -67.2 L 362.52 -67.2 C 367.2 -67.2 370.92 -70.92 370.92 -75.6 C 370.92 -80.28 367.2 -84 362.52 -84 L 317.52 -84 C 312.84 -84 309.12 -80.28 309.12 -75.6 C 309.12 -70.92 312.84 -67.2 317.52 -67.2 L 331.68 -67.2 L 331.68 -7.56 C 331.68 -2.88 335.4 0.84 340.08 0.84 C 344.76 0.84 348.48 -2.88 348.48 -7.56 Z" stroke-linecap="round" />
</g>
</g>
</g>
<g transform="matrix(1.9211538461538462 0 0 1.9211538461538462 639.993313977027 815.6568350454847)" id="tagline-4482d019-4219-466c-8169-41947d54bbc7-logo"  >
<g style=""  paint-order="stroke"   >
		<g transform="matrix(1 0 0 1 0.014999999999986358 -19.661999999999978)" id="tagline-4482d019-4219-466c-8169-41947d54bbc7-logo-path-0"  >
<linearGradient id="SVGID_539447" gradientUnits="userSpaceOnUse" gradientTransform="matrix(1 0 0 1 1.3199999999999932 -21.21)"  x1="-91.13999759674073" y1="-5.164199999999994" x2="-91.13999759674073" y2="67.8358">
<stop offset="0%" style="stop-color:rgb(48,35,174);stop-opacity: 1"/>
<stop offset="100%" style="stop-color:rgb(200,109,215);stop-opacity: 1"/>
</linearGradient>
<filter id="SVGID_539443" y="-47.855153203342624%" height="195.71030640668525%" x="-21.870732391731362%" width="143.74146478346273%" >
	<feGaussianBlur in="SourceAlpha" stdDeviation="3"></feGaussianBlur>
	<feOffset dx="0" dy="0" result="oBlur" ></feOffset>
	<feFlood flood-color="rgb(149,196,252)" flood-opacity="1"/>
	<feComposite in2="oBlur" operator="in" />
	<feMerge>
		<feMergeNode></feMergeNode>
		<feMergeNode in="SourceGraphic"></feMergeNode>
	</feMerge>
</filter>
<path style="stroke: rgb(28,68,116); stroke-width: 2; stroke-dasharray: none; stroke-linecap: butt; stroke-dashoffset: 0; stroke-linejoin: miter; stroke-miterlimit: 4; fill: url(#SVGID_539447); fill-rule: nonzero; opacity: 1;filter: url(#SVGID_539443);"  paint-order="stroke"  transform=" translate(-161.685, 10.440000000000001)" d="M 10.95 -19.11 L 10.95 -6.81 C 10.95 -5.01 10.02 -4.08 8.25 -4.08 C 6.45 -4.08 5.52 -5.01 5.52 -6.81 L 5.52 -19.11 C 5.52 -20.28 4.59 -21.21 3.42 -21.21 C 2.25 -21.21 1.32 -20.28 1.32 -19.11 L 1.32 -6.81 C 1.32 -2.97 4.41 0.12 8.25 0.12 C 10.11 0.12 11.82 -0.63 13.05 -1.83 C 14.31 -0.63 15.99 0.12 17.88 0.12 C 21.69 0.12 24.78 -2.97 24.78 -6.81 L 24.78 -19.11 C 24.78 -20.28 23.85 -21.21 22.68 -21.21 C 21.51 -21.21 20.58 -20.28 20.58 -19.11 L 20.58 -6.81 C 20.58 -5.01 19.65 -4.08 17.88 -4.08 C 16.08 -4.08 15.15 -5.01 15.15 -6.81 L 15.15 -19.11 C 15.15 -20.28 14.22 -21.21 13.05 -21.21 C 11.88 -21.21 10.95 -20.28 10.95 -19.11 Z M 41.67 -1.89 L 41.67 -8.7 L 50.37 -8.7 L 50.37 -1.89 C 50.37 -0.72 51.3 0.21 52.47 0.21 C 53.64 0.21 54.57 -0.72 54.57 -1.89 L 54.57 -19.11 C 54.57 -20.28 53.64 -21.21 52.47 -21.21 C 51.3 -21.21 50.37 -20.28 50.37 -19.11 L 50.37 -12.9 L 41.67 -12.9 L 41.67 -19.11 C 41.67 -20.28 40.74 -21.21 39.57 -21.21 C 38.4 -21.21 37.47 -20.28 37.47 -19.11 L 37.47 -1.89 C 37.47 -0.72 38.4 0.21 39.57 0.21 C 40.74 0.21 41.67 -0.72 41.67 -1.89 Z M 69.39 0 L 79.02 0 C 80.19 0 81.12 -0.93 81.12 -2.1 C 81.12 -3.27 80.19 -4.2 79.02 -4.2 L 71.46 -4.2 L 71.46 -8.7 L 77.82 -8.7 C 78.99 -8.7 79.92 -9.63 79.92 -10.8 C 79.92 -11.97 78.99 -12.9 77.82 -12.9 L 71.46 -12.9 L 71.46 -16.8 L 79.02 -16.8 C 80.19 -16.8 81.12 -17.73 81.12 -18.9 C 81.12 -20.07 80.19 -21 79.02 -21 L 69.39 -21 L 69.39 -21 L 69.36 -21 C 68.19 -21 67.26 -20.07 67.26 -18.9 L 67.26 -2.1 C 67.26 -0.93 68.19 0 69.36 0 Z M 98.01 -1.89 L 98.01 -6.72 L 101.7 -6.72 L 101.85 -6.45 L 105.33 -0.84 C 105.69 -0.24 106.35 0.12 107.1 0.12 C 108.24 0.12 109.2 -0.81 109.2 -1.98 C 109.2 -2.37 109.08 -2.76 108.87 -3.09 L 106.17 -7.44 C 108.66 -8.61 110.43 -11.01 110.43 -13.89 C 110.43 -17.88 106.95 -21 102.84 -21 L 95.91 -21 C 94.74 -21 93.81 -20.07 93.81 -18.9 L 93.81 -1.89 C 93.81 -0.72 94.74 0.21 95.91 0.21 C 97.08 0.21 98.01 -0.72 98.01 -1.89 Z M 98.01 -10.92 L 98.01 -16.8 L 102.84 -16.8 C 105.03 -16.8 106.23 -15.72 106.23 -13.89 C 106.23 -12 105.03 -10.92 102.84 -10.92 Z M 125.25 0 L 134.88 0 C 136.05 0 136.98 -0.93 136.98 -2.1 C 136.98 -3.27 136.05 -4.2 134.88 -4.2 L 127.32 -4.2 L 127.32 -8.7 L 133.68 -8.7 C 134.85 -8.7 135.78 -9.63 135.78 -10.8 C 135.78 -11.97 134.85 -12.9 133.68 -12.9 L 127.32 -12.9 L 127.32 -16.8 L 134.88 -16.8 C 136.05 -16.8 136.98 -17.73 136.98 -18.9 C 136.98 -20.07 136.05 -21 134.88 -21 L 125.25 -21 L 125.25 -21 L 125.22 -21 C 124.05 -21 123.12 -20.07 123.12 -18.9 L 123.12 -2.1 C 123.12 -0.93 124.05 0 125.22 0 Z M 175.56 -1.89 L 175.56 -16.8 L 179.07 -16.8 C 180.24 -16.8 181.17 -17.73 181.17 -18.9 C 181.17 -20.07 180.24 -21 179.07 -21 L 167.82 -21 C 166.65 -21 165.72 -20.07 165.72 -18.9 C 165.72 -17.73 166.65 -16.8 167.82 -16.8 L 171.36 -16.8 L 171.36 -1.89 C 171.36 -0.72 172.29 0.21 173.46 0.21 C 174.63 0.21 175.56 -0.72 175.56 -1.89 Z M 196.86 -1.77 L 196.86 -5.7 L 206.19 -5.7 L 206.19 -1.77 C 206.19 -0.6 207.12 0.33 208.29 0.33 C 209.46 0.33 210.39 -0.6 210.39 -1.77 L 210.39 -12.24 C 210.39 -17.16 206.43 -21.12 201.54 -21.12 C 196.62 -21.12 192.66 -17.16 192.66 -12.24 L 192.66 -1.77 C 192.66 -0.6 193.59 0.33 194.76 0.33 C 195.93 0.33 196.86 -0.6 196.86 -1.77 Z M 196.86 -9.9 L 196.86 -12.24 C 196.86 -15.12 198.66 -16.92 201.54 -16.92 C 204.39 -16.92 206.19 -15.12 206.19 -12.24 L 206.19 -9.9 Z M 225.18 0 L 234.84 0 C 236.01 0 236.94 -0.93 236.94 -2.1 C 236.94 -3.27 236.01 -4.2 234.84 -4.2 L 227.28 -4.2 L 227.28 -19.11 C 227.28 -20.28 226.35 -21.21 225.18 -21.21 C 224.01 -21.21 223.08 -20.28 223.08 -19.11 L 223.08 -2.1 C 223.08 -0.93 224.01 0 225.18 0 Z M 251.76 0 L 261.39 0 C 262.56 0 263.49 -0.93 263.49 -2.1 C 263.49 -3.27 262.56 -4.2 261.39 -4.2 L 253.83 -4.2 L 253.83 -8.7 L 260.19 -8.7 C 261.36 -8.7 262.29 -9.63 262.29 -10.8 C 262.29 -11.97 261.36 -12.9 260.19 -12.9 L 253.83 -12.9 L 253.83 -16.8 L 261.39 -16.8 C 262.56 -16.8 263.49 -17.73 263.49 -18.9 C 263.49 -20.07 262.56 -21 261.39 -21 L 251.76 -21 L 251.76 -21 L 251.73 -21 C 250.56 -21 249.63 -20.07 249.63 -18.9 L 249.63 -2.1 C 249.63 -0.93 250.56 0 251.73 0 Z M 280.38 -1.77 L 280.38 -12.24 C 280.38 -15.12 282.18 -16.92 285.06 -16.92 C 287.91 -16.92 289.71 -15.12 289.71 -12.24 L 289.71 -1.77 C 289.71 -0.6 290.64 0.33 291.81 0.33 C 292.98 0.33 293.91 -0.6 293.91 -1.77 L 293.91 -12.24 C 293.91 -17.16 289.95 -21.12 285.06 -21.12 C 280.14 -21.12 276.18 -17.16 276.18 -12.24 L 276.18 -1.77 C 276.18 -0.6 277.11 0.33 278.28 0.33 C 279.45 0.33 280.38 -0.6 280.38 -1.77 Z M 316.44 -1.89 L 316.44 -16.8 L 319.95 -16.8 C 321.12 -16.8 322.05 -17.73 322.05 -18.9 C 322.05 -20.07 321.12 -21 319.95 -21 L 308.7 -21 C 307.53 -21 306.6 -20.07 306.6 -18.9 C 306.6 -17.73 307.53 -16.8 308.7 -16.8 L 312.24 -16.8 L 312.24 -1.89 C 312.24 -0.72 313.17 0.21 314.34 0.21 C 315.51 0.21 316.44 -0.72 316.44 -1.89 Z" stroke-linecap="round" />
</g>
		<g transform="matrix(1 0 0 1 0 19.661999999999978)" id="tagline-4482d019-4219-466c-8169-41947d54bbc7-logo-path-1"  >
<linearGradient id="SVGID_539448" gradientUnits="userSpaceOnUse" gradientTransform="matrix(1 0 0 1 17.370000000000005 -21.21)"  x1="-17.339997596740744" y1="-44.48819999999995" x2="-17.339997596740744" y2="28.51180000000005">
<stop offset="0%" style="stop-color:rgb(48,35,174);stop-opacity: 1"/>
<stop offset="100%" style="stop-color:rgb(200,109,215);stop-opacity: 1"/>
</linearGradient>
<filter id="SVGID_539443" y="-47.855153203342624%" height="195.71030640668525%" x="-21.28122998078155%" width="142.5624599615631%" >
	<feGaussianBlur in="SourceAlpha" stdDeviation="3"></feGaussianBlur>
	<feOffset dx="0" dy="0" result="oBlur" ></feOffset>
	<feFlood flood-color="rgb(149,196,252)" flood-opacity="1"/>
	<feComposite in2="oBlur" operator="in" />
	<feMerge>
		<feMergeNode></feMergeNode>
		<feMergeNode in="SourceGraphic"></feMergeNode>
	</feMerge>
</filter>
<path style="stroke: rgb(28,68,116); stroke-width: 2; stroke-dasharray: none; stroke-linecap: butt; stroke-dashoffset: 0; stroke-linejoin: miter; stroke-miterlimit: 4; fill: url(#SVGID_539448); fill-rule: nonzero; opacity: 1;filter: url(#SVGID_539443);"  paint-order="stroke"  transform=" translate(-251.52, 10.440000000000001)" d="M 21.57 -1.77 L 21.57 -14.19 C 21.57 -15.99 22.5 -16.92 24.3 -16.92 C 26.07 -16.92 27 -15.99 27 -14.19 L 27 -1.77 C 27 -0.6 27.93 0.33 29.1 0.33 C 30.27 0.33 31.2 -0.6 31.2 -1.77 L 31.2 -14.19 C 31.2 -15.99 32.13 -16.92 33.93 -16.92 C 35.7 -16.92 36.63 -15.99 36.63 -14.19 L 36.63 -1.77 C 36.63 -0.6 37.56 0.33 38.73 0.33 C 39.9 0.33 40.83 -0.6 40.83 -1.77 L 40.83 -14.19 C 40.83 -18.03 37.74 -21.12 33.93 -21.12 C 32.04 -21.12 30.36 -20.37 29.1 -19.17 C 27.87 -20.37 26.16 -21.12 24.3 -21.12 C 20.46 -21.12 17.37 -18.03 17.37 -14.19 L 17.37 -1.77 C 17.37 -0.6 18.3 0.33 19.47 0.33 C 20.64 0.33 21.57 -0.6 21.57 -1.77 Z M 55.65 0 L 65.28 0 C 66.45 0 67.38 -0.93 67.38 -2.1 C 67.38 -3.27 66.45 -4.2 65.28 -4.2 L 57.72 -4.2 L 57.72 -8.7 L 64.08 -8.7 C 65.25 -8.7 66.18 -9.63 66.18 -10.8 C 66.18 -11.97 65.25 -12.9 64.08 -12.9 L 57.72 -12.9 L 57.72 -16.8 L 65.28 -16.8 C 66.45 -16.8 67.38 -17.73 67.38 -18.9 C 67.38 -20.07 66.45 -21 65.28 -21 L 55.65 -21 L 55.65 -21 L 55.62 -21 C 54.45 -21 53.52 -20.07 53.52 -18.9 L 53.52 -2.1 C 53.52 -0.93 54.45 0 55.62 0 Z M 82.2 0 L 91.83 0 C 93 0 93.93 -0.93 93.93 -2.1 C 93.93 -3.27 93 -4.2 91.83 -4.2 L 84.27 -4.2 L 84.27 -8.7 L 90.63 -8.7 C 91.8 -8.7 92.73 -9.63 92.73 -10.8 C 92.73 -11.97 91.8 -12.9 90.63 -12.9 L 84.27 -12.9 L 84.27 -16.8 L 91.83 -16.8 C 93 -16.8 93.93 -17.73 93.93 -18.9 C 93.93 -20.07 93 -21 91.83 -21 L 82.2 -21 L 82.2 -21 L 82.17 -21 C 81 -21 80.07 -20.07 80.07 -18.9 L 80.07 -2.1 C 80.07 -0.93 81 0 82.17 0 Z M 116.46 -1.89 L 116.46 -16.8 L 119.97 -16.8 C 121.14 -16.8 122.07 -17.73 122.07 -18.9 C 122.07 -20.07 121.14 -21 119.97 -21 L 108.72 -21 C 107.55 -21 106.62 -20.07 106.62 -18.9 C 106.62 -17.73 107.55 -16.8 108.72 -16.8 L 112.26 -16.8 L 112.26 -1.89 C 112.26 -0.72 113.19 0.21 114.36 0.21 C 115.53 0.21 116.46 -0.72 116.46 -1.89 Z M 135.21 -3.54 C 137.13 -1.17 139.77 0.12 142.65 0.12 C 147 0.12 150.48 -2.52 150.48 -6.33 C 150.48 -10.5 147.12 -11.55 143.22 -12.39 C 140.52 -13.05 139.47 -13.35 139.47 -14.82 C 139.47 -16.26 140.16 -16.92 142.53 -16.92 C 144.06 -16.92 144.99 -16.5 145.71 -15.75 C 146.1 -15.36 146.61 -15.12 147.21 -15.12 C 148.35 -15.12 149.28 -16.05 149.28 -17.22 C 149.28 -17.79 149.04 -18.33 148.65 -18.72 C 147.24 -20.07 145.26 -21.12 142.53 -21.12 C 138.18 -21.12 135.27 -18.36 135.27 -14.82 C 135.27 -10.62 138.51 -9.21 142.26 -8.31 C 145.23 -7.65 146.28 -7.47 146.28 -6.33 C 146.28 -4.77 145.02 -4.08 142.65 -4.08 C 140.91 -4.08 139.59 -4.68 138.51 -6.09 C 138.12 -6.6 137.52 -6.93 136.86 -6.93 C 135.69 -6.93 134.76 -6 134.76 -4.83 C 134.76 -4.35 134.94 -3.9 135.21 -3.54 Z M 189.84 -4.08 C 186 -4.08 183.42 -6.66 183.42 -10.5 C 183.42 -14.34 186 -16.92 189.84 -16.92 C 193.68 -16.92 196.26 -14.34 196.26 -10.5 C 196.26 -6.66 193.68 -4.08 189.84 -4.08 Z M 179.22 -10.5 C 179.22 -4.62 183.96 0.12 189.84 0.12 C 195.72 0.12 200.46 -4.62 200.46 -10.5 C 200.46 -16.38 195.72 -21.12 189.84 -21.12 C 183.96 -21.12 179.22 -16.38 179.22 -10.5 Z M 217.35 -1.89 L 217.35 -6.72 L 222.09 -6.72 C 225.96 -6.72 229.23 -9.9 229.23 -13.89 C 229.23 -17.82 225.96 -21 222.09 -21 L 215.28 -21 L 215.28 -21 L 215.25 -21 C 214.08 -21 213.15 -20.07 213.15 -18.9 L 213.15 -1.89 C 213.15 -0.72 214.08 0.21 215.25 0.21 C 216.42 0.21 217.35 -0.72 217.35 -1.89 Z M 217.35 -10.92 L 217.35 -16.8 L 222.09 -16.8 C 223.98 -16.8 225.03 -15.75 225.03 -13.89 C 225.03 -11.97 223.98 -10.92 222.09 -10.92 Z M 246.12 -1.89 L 246.12 -6.72 L 250.86 -6.72 C 254.73 -6.72 258 -9.9 258 -13.89 C 258 -17.82 254.73 -21 250.86 -21 L 244.05 -21 L 244.05 -21 L 244.02 -21 C 242.85 -21 241.92 -20.07 241.92 -18.9 L 241.92 -1.89 C 241.92 -0.72 242.85 0.21 244.02 0.21 C 245.19 0.21 246.12 -0.72 246.12 -1.89 Z M 246.12 -10.92 L 246.12 -16.8 L 250.86 -16.8 C 252.75 -16.8 253.8 -15.75 253.8 -13.89 C 253.8 -11.97 252.75 -10.92 250.86 -10.92 Z M 281.31 -4.08 C 277.47 -4.08 274.89 -6.66 274.89 -10.5 C 274.89 -14.34 277.47 -16.92 281.31 -16.92 C 285.15 -16.92 287.73 -14.34 287.73 -10.5 C 287.73 -6.66 285.15 -4.08 281.31 -4.08 Z M 270.69 -10.5 C 270.69 -4.62 275.43 0.12 281.31 0.12 C 287.19 0.12 291.93 -4.62 291.93 -10.5 C 291.93 -16.38 287.19 -21.12 281.31 -21.12 C 275.43 -21.12 270.69 -16.38 270.69 -10.5 Z M 308.82 -1.89 L 308.82 -6.72 L 312.51 -6.72 L 312.66 -6.45 L 316.14 -0.84 C 316.5 -0.24 317.16 0.12 317.91 0.12 C 319.05 0.12 320.01 -0.81 320.01 -1.98 C 320.01 -2.37 319.89 -2.76 319.68 -3.09 L 316.98 -7.44 C 319.47 -8.61 321.24 -11.01 321.24 -13.89 C 321.24 -17.88 317.76 -21 313.65 -21 L 306.72 -21 C 305.55 -21 304.62 -20.07 304.62 -18.9 L 304.62 -1.89 C 304.62 -0.72 305.55 0.21 306.72 0.21 C 307.89 0.21 308.82 -0.72 308.82 -1.89 Z M 308.82 -10.92 L 308.82 -16.8 L 313.65 -16.8 C 315.84 -16.8 317.04 -15.72 317.04 -13.89 C 317.04 -12 315.84 -10.92 313.65 -10.92 Z M 343.77 -1.89 L 343.77 -16.8 L 347.28 -16.8 C 348.45 -16.8 349.38 -17.73 349.38 -18.9 C 349.38 -20.07 348.45 -21 347.28 -21 L 336.03 -21 C 334.86 -21 333.93 -20.07 333.93 -18.9 C 333.93 -17.73 334.86 -16.8 336.03 -16.8 L 339.57 -16.8 L 339.57 -1.89 C 339.57 -0.72 340.5 0.21 341.67 0.21 C 342.84 0.21 343.77 -0.72 343.77 -1.89 Z M 375.6 -19.11 L 375.6 -8.76 C 375.6 -5.88 373.8 -4.08 370.95 -4.08 C 368.07 -4.08 366.27 -5.88 366.27 -8.76 L 366.27 -19.11 C 366.27 -20.28 365.34 -21.21 364.17 -21.21 C 363 -21.21 362.07 -20.28 362.07 -19.11 L 362.07 -8.76 C 362.07 -3.84 366.03 0.12 370.95 0.12 C 375.84 0.12 379.8 -3.84 379.8 -8.76 L 379.8 -19.11 C 379.8 -20.28 378.87 -21.21 377.7 -21.21 C 376.53 -21.21 375.6 -20.28 375.6 -19.11 Z M 396.69 -1.77 L 396.69 -12.24 C 396.69 -15.12 398.49 -16.92 401.37 -16.92 C 404.22 -16.92 406.02 -15.12 406.02 -12.24 L 406.02 -1.77 C 406.02 -0.6 406.95 0.33 408.12 0.33 C 409.29 0.33 410.22 -0.6 410.22 -1.77 L 410.22 -12.24 C 410.22 -17.16 406.26 -21.12 401.37 -21.12 C 396.45 -21.12 392.49 -17.16 392.49 -12.24 L 392.49 -1.77 C 392.49 -0.6 393.42 0.33 394.59 0.33 C 395.76 0.33 396.69 -0.6 396.69 -1.77 Z M 427.11 -1.89 L 427.11 -19.11 C 427.11 -20.28 426.18 -21.21 425.01 -21.21 C 423.84 -21.21 422.91 -20.28 422.91 -19.11 L 422.91 -1.89 C 422.91 -0.72 423.84 0.21 425.01 0.21 C 426.18 0.21 427.11 -0.72 427.11 -1.89 Z M 449.64 -1.89 L 449.64 -16.8 L 453.15 -16.8 C 454.32 -16.8 455.25 -17.73 455.25 -18.9 C 455.25 -20.07 454.32 -21 453.15 -21 L 441.9 -21 C 440.73 -21 439.8 -20.07 439.8 -18.9 C 439.8 -17.73 440.73 -16.8 441.9 -16.8 L 445.44 -16.8 L 445.44 -1.89 C 445.44 -0.72 446.37 0.21 447.54 0.21 C 448.71 0.21 449.64 -0.72 449.64 -1.89 Z M 481.47 -19.11 L 481.47 -15.24 C 481.47 -12.36 479.67 -10.56 476.79 -10.56 C 473.94 -10.56 472.14 -12.36 472.14 -15.24 L 472.14 -19.11 C 472.14 -20.28 471.21 -21.21 470.04 -21.21 C 468.87 -21.21 467.94 -20.28 467.94 -19.11 L 467.94 -15.24 C 467.94 -11.04 470.82 -7.56 474.69 -6.6 L 474.69 -6.57 L 474.72 -1.89 C 474.72 -0.72 475.65 0.21 476.82 0.21 C 477.99 0.21 478.92 -0.72 478.92 -1.89 L 478.89 -6.57 L 478.89 -6.6 C 482.79 -7.56 485.67 -11.04 485.67 -15.24 L 485.67 -19.11 C 485.67 -20.28 484.74 -21.21 483.57 -21.21 C 482.4 -21.21 481.47 -20.28 481.47 -19.11 Z" stroke-linecap="round" />
</g>
</g>
</g>
</svg>